<svg width="44" height="44" viewBox="0 0 44 44" fill="none" xmlns="http://www.w3.org/2000/svg">
<path d="M22 3.73999C11.9167 3.73999 3.66669 11.9717 3.66669 22.11C3.66669 31.2767 10.3767 38.885 19.14 40.26V27.4267H14.4834V22.11H19.14V18.0583C19.14 13.4567 21.8717 10.9267 26.07 10.9267C28.0684 10.9267 30.1584 11.275 30.1584 11.275V15.8033H27.8484C25.575 15.8033 24.86 17.215 24.86 18.6633V22.11H29.9567L29.1317 27.4267H24.86V40.26C29.1802 39.5777 33.1141 37.3734 35.9516 34.0451C38.789 30.7168 40.3432 26.4837 40.3334 22.11C40.3334 11.9717 32.0834 3.73999 22 3.73999Z" fill="#1976D2"/>
</svg>
